# xmcd
#
# Track frame offsets:
# 150
# 2298
# 19371
# 29714
# 43539
# 53706
# 67873
# 79108
# 96767
# 105500
# 117863
# 123939
# 129267
# 141326
# 161261
# 173961
# 186332
# 200021
# 208754
# 218039
# 227383
# 238451
# 253863
# 265703
# 279063
#
# Disc length: 3799 seconds
#
#
# Revision: 2
# Processed by: cddbd v1.5.1PL0 Copyright (c) Steve Scherf et al.
# Submitted via: FreeRIP 2.92 
#
DISCID=580ed519
DTITLE=Maria Beth nia - Ao Vivo
DYEAR=1900
DGENRE=
TTITLE0=Introdu  o: Cristal (instrumental)
TTITLE1=Fera ferida
TTITLE2=F  cega, faca amolada
TTITLE3=Eu e  gua
TTITLE4=Genipapo absoluto
TTITLE5=Man  Fogueteiro
TTITLE6=Tudo de novo
TTITLE7=As can  es que voc   fez pra mim
TTITLE8=Ronda
TTITLE9=Atr s da verde e rosa s  n o vai quem j  morreu
TTITLE10=Faixa de cetim
TTITLE11=Lua
TTITLE12=Lua branca
TTITLE13=Detalhes
TTITLE14=Costumes
TTITLE15=Meu primeiro amor
TTITLE16=Voc  n o sabe
TTITLE17=Explode cora  o
TTITLE18=B rbara
TTITLE19=Mar e lua
TTITLE20=Voc
TTITLE21=Reconvexo
TTITLE22=Todo o sentimento
TTITLE23=Emo  es
TTITLE24=Todo o sentimento
EXTD=
EXTT0=
EXTT1=
EXTT2=
EXTT3=
EXTT4=
EXTT5=
EXTT6=
EXTT7=
EXTT8=
EXTT9=
EXTT10=
EXTT11=
EXTT12=
EXTT13=
EXTT14=
EXTT15=
EXTT16=
EXTT17=
EXTT18=
EXTT19=
EXTT20=
EXTT21=
EXTT22=
EXTT23=
EXTT24=
PLAYORDER=
